<svg xmlns="http://www.w3.org/2000/svg" version="1.1" xmlns:xlink="http://www.w3.org/1999/xlink" xmlns:svgjs="http://svgjs.com/svgjs" width="1440" height="560" preserveAspectRatio="none" viewBox="0 0 1440 560"><g mask="url(&quot;#SvgjsMask1006&quot;)" fill="none"><rect width="1440" height="560" x="0" y="0" fill="#0e2a47"></rect><path d="M 0,364 C 57.6,327.8 172.8,167.2 288,183 C 403.2,198.8 460.8,444.4 576,443 C 691.2,441.6 748.8,180.6 864,176 C 979.2,171.4 1036.8,428.8 1152,420 C 1267.2,411.2 1382.4,189.6 1440,132L1440 560L0 560z" fill="#184a7e"></path><path d="M 0,268 C 96,310 288,476.2 480,478 C 672,479.8 768,314.4 960,277 C 1152,239.6 1344,288.2 1440,291L1440 560L0 560z" fill="#2264ab"></path></g><defs><mask id="SvgjsMask1006"><rect width="1440" height="560" fill="#ffffff"></rect></mask></defs></svg>